<?xml version="1.0" encoding="utf-8"?>
<!-- Generator: Adobe Illustrator 16.0.0, SVG Export Plug-In . SVG Version: 6.00 Build 0)  -->
<!DOCTYPE svg PUBLIC "-//W3C//DTD SVG 1.1//EN" "http://www.w3.org/Graphics/SVG/1.1/DTD/svg11.dtd">
<svg version="1.1" id="Livello_1" xmlns="http://www.w3.org/2000/svg" xmlns:xlink="http://www.w3.org/1999/xlink" x="0px" y="0px"
	 width="503px" height="132.645px" viewBox="0 0 503 132.645" enable-background="new 0 0 503 132.645" xml:space="preserve">
<g>
	<path fill="#FFFFFF" d="M125.4,120.769l-0.069-11.952c3.484,0,4.646,0.134,4.646,0.134v15.643c0,3.484-2.8,6.285-6.284,6.285
		H13.719c-3.483,0-6.284-2.391-6.284-4.78l15.847,0.271c0,0,8.539-0.271,12.023-0.271c0,0,81.831,0.271,83.88,0.271
		C123.693,126.302,125.4,120.769,125.4,120.769z"/>
	<path fill="none" stroke="#FFFFFF" stroke-width="1.903" stroke-miterlimit="3.8637" d="M21.301,3.144h474.937
		c3.484,0,6.421,2.8,6.421,6.285v94.196c0,3.481-1.501,5.326-4.986,5.326c-32.582,0-287.229-0.134-372.341-0.134
		c0-0.208,0.138-86.752,0.138-86.752c0.614-6.762-1.094-9.153-5.533-10.109c-0.342-0.068-105.262-0.273-105.262-0.273l0.273-2.323
		C15.016,5.944,17.816,3.144,21.301,3.144L21.301,3.144z"/>
	<path fill="#FFFFFF" d="M142.067,48.225c-3.005-2.047-4.031-4.233-5.328-7.649c-1.503-3.893-1.912-6.557-1.161-10.724
		c0.615-3.348,0-7.992,3.484-8.061l33.675-0.82c4.781-0.137,6.216,5.056,7.377,9.837c1.161,4.303,0.342,5.943-0.819,9.426
		c-1.777,5.328-7.377,16.188-9.357,10.929c-0.615-1.64-0.411-2.732-0.207-4.509c0.207-2.186,1.161-3.21,1.503-5.328
		c0.273-1.98,0.889-3.21,0.205-5.055c-0.751-2.117-2.117-3.278-4.303-3.894c-1.095-0.272-1.98-0.956-2.801-0.205
		c-0.546,0.479-0.614,0.752-0.34,1.913c0.819,5.055,0.955,8.061,1.161,13.251c0.34,9.085-1.572,14.208-1.572,23.292
		c0,5.604,0,8.812,0.546,14.415c0.341,3.755,1.025,6.077,1.229,9.63c0,0.751,0.343,2.186-0.546,2.186l-14.481-0.206
		c-3.143-0.066-2.801-4.44-3.074-7.58c-0.546-6.627,1.501-10.86,2.8-17.762c1.366-6.899,3.074-10.655,3.962-17.622
		c0.409-2.869,0.683-4.508,0.751-7.446c0.068-3.21,0.411-5.123-0.409-8.196c-0.342-1.297-0.069-2.323-1.026-3.279
		c-0.546-0.477-0.888-0.683-1.571-0.819c-1.092-0.273-1.845-0.068-2.8,0.41c-1.298,0.683-1.913,1.434-2.391,2.8
		c-0.615,1.777,0.205,2.938,0.751,4.714c0.752,2.459,2.938,3.21,3.074,5.806c0.068,1.093,0.137,1.844-0.41,2.8
		C148.282,53.281,144.662,49.933,142.067,48.225L142.067,48.225z"/>
	<path fill="#FFFFFF" d="M196.439,30.33c-1.025-0.137-1.708-0.478-2.596,0c-1.298,0.684-0.887,2.118-1.16,3.552
		c-0.548,2.595-0.138,3.551,0,6.831c0.204,2.322,0.067,3.142,1.433,4.098c1.298,0.819,2.392,0.273,3.895,0
		c2.869-0.478,4.304-1.913,6.625-3.483c2.188-1.367,1.914-1.777,1.708-3.143c-0.136-0.615-0.409-0.888-0.75-1.502
		c-1.366-2.323-2.458-3.621-4.85-4.918C199.239,30.945,198.215,30.603,196.439,30.33L196.439,30.33z M215.565,62.98
		c1.367,2.596,0.615,4.575,0.751,7.583c0.204,5.533,0,8.745-1.229,14.208c-0.888,3.758-0.821,5.533-3.28,9.358
		c-0.957,1.367-2.254,2.322-4.097,2.322l-11.204-0.204c-2.117-0.07-3.142-1.026-4.85-2.324c-2.528-1.912-2.937-4.03-4.439-6.831
		c-1.845-3.552-2.596-5.67-3.553-9.562c-1.708-6.693-1.297-10.725-1.501-17.624c-0.206-9.974,0.205-14.686,1.571-25.479
		c0.75-5.055,2.595-13.457,9.153-14.276c2.186-0.41,3.209-0.479,5.259-0.615c4.304-0.341,6.832-0.958,10.998,0
		c1.845,0.41,3.142,0.615,4.646,1.571c1.776,1.366,2.596,2.732,3.347,4.918c0.546,1.571,0.615,2.595,0.615,4.44
		c-0.136,4.712-0.957,8.401-3.893,11.476c-0.819,0.819-12.159,5.122-15.438,9.016c-0.751,0.615-2.39,0.956-2.527,2.323
		c-0.069,0.751-0.069,1.434,0.546,1.912c0.411,0.341,0.819,0.273,1.365,0.205c1.026-0.069,1.299-0.956,2.188-1.571
		c4.167-2.801,6.762-3.894,11.202-6.215c1.025-0.547,1.503-1.093,2.596-1.23c0.75-0.137,1.435-0.478,1.981,0
		c0.41,0.341,0.342,0.751,0.41,1.23c0.34,1.639,0.409,3.21-0.957,4.166c-0.615,0.479-1.503,0.341-1.913,0.615
		c-4.645,2.391-6.762,3.825-10.792,6.625c-1.639,1.093-2.733,1.504-4.099,2.938c-0.888,0.957-1.435,1.503-1.981,2.732
		c-0.479,1.025-0.479,1.708-0.615,2.801c-0.274,2.253,0.069,3.62,0.548,5.875c0.409,1.912,0.546,3.142,1.57,4.851
		c0.546,0.956,0.888,1.568,1.776,2.186c0.888,0.614,1.57,0.817,2.596,0.817c1.433,0,2.254-0.476,3.483-1.228
		c1.025-0.616,1.638-1.095,2.322-2.116c1.23-1.71,1.024-3.145,1.23-5.264c0.204-1.772,0-2.729,0-4.507
		c0-1.366-0.069-2.185,0.136-3.551c0.206-1.913-0.888-4.304,0.957-4.851c0.956-0.273,1.639-0.204,2.527,0.206
		C214.472,60.453,214.813,61.615,215.565,62.98L215.565,62.98z"/>
	<path fill="#FFFFFF" d="M250.059,57.927c0.819,0.341,1.365,0.477,1.98,1.161c0.82,0.819,0.615,1.707,0.956,2.8
		c0.82,2.937,0.138,4.782,0.138,7.854c-0.068,5.058,0.068,7.993-1.024,12.911c-0.75,3.416-1.092,5.467-2.732,8.606
		c-0.956,1.776-1.298,3.074-2.937,4.167c-1.093,0.751-1.913,0.751-3.143,1.025c-1.776,0.409-2.87,0.409-4.713,0.203
		c-3.075-0.271-5.056-0.75-7.445-2.731c-1.981-1.639-2.665-3.073-3.893-5.329c-2.527-4.712-2.254-7.99-3.28-13.249
		c-1.229-6.149-1.776-9.701-2.186-15.984c-0.342-4.918-0.342-7.788-0.137-12.706c0.273-5.26-0.41-8.47,1.367-13.456
		c1.775-5.054,2.186-10.178,7.65-11.476c2.801-0.615,4.917-0.819,8.059-1.025c3.416-0.273,5.396-0.751,8.676,0
		c2.254,0.479,3.756,0.547,5.533,1.981c2.868,2.254,3.414,5.055,3.346,8.744c-0.067,3.416-1.161,5.806-3.346,8.06
		c-3.553,3.347-5.261,5.533-9.222,8.197c-2.733,1.844-7.376,6.216-7.446,4.098c0-0.546-0.478-0.956-0.615-1.571
		c-0.411-1.435-0.411-2.391,0-3.757c0.546-1.776,1.845-2.254,3.073-3.688c1.093-1.367,1.982-1.98,2.801-3.484
		c0.615-1.093,1.23-1.775,1.23-3.074c0.068-1.502-0.411-2.391-1.23-3.552c-1.913-2.596-5.874-3.074-8.06-1.98
		c-1.503,0.614-1.914,3.415-2.733,5.805c-1.162,3.484-1.162,5.602-1.435,9.221c-0.478,5.328-0.886,8.403,0.207,13.663
		c0.955,4.508,1.57,7.241,4.167,10.998c1.845,2.664,2.595,5.94,5.874,6.009c1.026,0,1.572-0.134,2.527-0.546
		c1.094-0.477,1.708-0.818,2.391-1.776c1.23-1.64,0.889-3.074,1.162-5.122c0.273-2.187,0.477-3.484,0-5.67
		c-0.205-0.956-0.684-1.366-0.752-2.322c-0.067-1.435-0.067-2.733,1.161-3.484C247.396,56.833,248.625,57.38,250.059,57.927
		L250.059,57.927z"/>
	<path fill="#FFFFFF" d="M261.808,21.45c1.436-0.751,2.597-0.137,4.167,0c1.98,0.137,3.278-0.273,5.055,0.752
		c2.322,1.297,2.664,3.278,3.553,5.806c0.956,2.665,0.547,4.371,1.023,7.172c0.751,3.758,0.684,6.012,2.118,9.563
		c1.024,2.527,1.435,4.235,3.347,6.216c1.365,1.435,2.255,2.596,4.167,2.801c1.434,0.204,2.526,0.409,3.688-0.547
		c1.707-1.435,0.546-3.483,0.204-5.669c-0.341-2.459-1.228-3.689-2.391-5.875c-1.298-2.39-2.254-3.62-3.961-5.805
		c-1.436-1.777-2.322-3.075-3.894-4.304c-2.528-1.98-1.98-2.595-1.503-4.304c0.409-1.434,1.435-1.775,2.528-2.799
		c1.366-1.366,1.979-2.528,3.758-3.279c2.525-1.024,4.643-1.093,6.896,0.341c2.665,1.64,2.526,4.372,3.279,7.446
		c0.889,3.552,0.342,5.669,0.342,9.357l-0.342,56.558c0,1.162-1.503,0.956-2.733,1.025c-4.507,0.343-3.347-0.408-7.65,0
		c-1.435,0-2.39-1.71-2.39-3.277c0-2.394,0.206-4.374,0.206-7.105c0-6.148-0.479-9.7-1.708-15.78
		c-0.89-4.302-1.094-6.83-2.802-10.792c-1.023-2.391-1.229-4.235-3.277-5.874c-1.23-1.024-3.689-3.484-3.689-1.913l0.409,43.649
		c0,0.888-0.75,1.022-2.116,1.022c-3.075,0-4.1-0.339-7.856,0.342c-1.024,0.206-0.82-1.912-0.751-2.8
		c0.547-5.67,1.023-8.266,1.435-13.524c0.546-6.489,0.957-10.111,0.957-16.6c0-6.489-0.479-10.109-0.957-16.599
		c-0.342-4.781-0.615-7.445-0.957-12.158c-0.272-4.099-0.614-5.874-0.547-10.52C259.555,22.679,260.648,21.997,261.808,21.45
		L261.808,21.45z"/>
	<path fill="#FFFFFF" d="M316.318,33.199c-2.938-0.546-3.415,1.161-4.918,2.732c-2.051,2.118-1.845,4.235-2.597,7.036
		c-0.546,1.98-0.888,3.142-0.957,5.258c0,1.914-0.136,3.074,0.616,4.851c1.025,2.322,3.21,2.391,4.645,4.508
		c1.57,2.391,1.162,4.303,2.323,6.899c2.185,4.919,3.142,15.096,7.786,11.476c0.956-0.956,1.093-2.324,1.572-3.896
		c0.613-2.048,0.681-3.277,1.023-5.327c0.819-4.303,1.16-6.762,1.366-11.134c0.068-2.391,0.204-3.756,0-6.079
		c-0.206-2.459-0.343-3.826-1.025-6.216c-0.614-2.117-0.819-3.415-2.118-5.26c-0.887-1.297-1.502-2.049-2.8-2.937
		C319.528,33.882,318.23,33.472,316.318,33.199L316.318,33.199z M309.829,21.655c6.489,0,10.041-0.957,16.461-0.205
		c1.775,0.205,4.372,2.323,5.056,3.894c3.278,7.855,2.187,9.835,2.937,16.257c0.819,7.308,1.025,11.475,0.616,18.783
		c-0.343,6.218-0.959,9.77-2.187,15.85c-0.616,3.074-0.752,4.847-1.708,7.852c-1.16,3.826-1.708,6.219-4.168,9.359
		c-1.023,1.23-1.57,2.938-2.801,2.938c-7.376,0.751-6.077,0.41-9.835,0.205c-1.57,0-2.596-0.958-3.892-2.118
		c-1.3-1.093-1.778-1.979-2.529-3.482c-2.8-5.876-3.895-10.179-5.328-17.01c-1.366-6.284-1.708-9.973-2.117-16.394
		c-0.41-6.352-0.615-10.041,0.137-16.393c0.341-3.074,0.479-4.85,1.229-7.856c0.751-3.005,1.093-4.781,2.526-7.445
		c0.753-1.434,0.889-2.596,2.186-3.484C307.506,21.723,308.463,21.655,309.829,21.655L309.829,21.655z"/>
	<path fill="#FFFFFF" d="M368.367,58.199c0.82,0.342,1.365,0.41,1.981,1.025c0.82,0.888,0.546,1.776,0.82,2.938
		c0.75,3.006,0.342,4.781,0.342,7.855c0,4.987-0.069,7.924-1.162,12.841c-0.75,3.415-1.093,5.466-2.733,8.607
		c-0.955,1.776-1.229,3.144-2.937,4.305c-1.024,0.683-1.845,0.751-3.074,1.024c-1.844,0.409-2.937,0.341-4.849,0.137
		c-3.005-0.342-4.919-0.82-7.311-2.735c-2.047-1.567-2.799-3.003-4.096-5.259c-2.598-4.644-2.051-8.061-3.075-13.318
		c-1.162-6.147-1.775-9.7-2.186-15.984c-0.342-4.919-0.342-7.787-0.137-12.706c0.272-5.26-0.41-8.47,1.364-13.456
		c1.777-5.054,2.188-10.178,7.584-11.475c2.801-0.615,4.985-0.82,8.197-1.025c3.416-0.273,5.463-0.819,8.812,0
		c2.116,0.479,3.551,0.616,5.26,1.981c2.868,2.322,3.551,5.123,3.483,8.812c-0.139,3.415-1.162,5.669-3.483,7.992
		c-3.278,3.483-5.056,5.669-9.017,8.266c-2.801,1.844-7.31,6.215-7.582,3.961c0-0.41-0.41-0.957-0.547-1.57
		c-0.342-1.367-0.41-2.324,0-3.689c0.547-1.844,1.844-2.322,3.074-3.756c1.092-1.299,2.185-1.776,2.937-3.347
		c0.545-1.093,0.956-1.776,0.956-3.073c0-1.503-0.342-2.392-1.229-3.553c-1.911-2.596-5.533-3.142-7.991-1.98
		c-1.229,0.546-1.914,3.347-2.731,5.669c-1.163,3.483-1.163,5.669-1.437,9.357c-0.478,5.26-0.751,8.333,0.343,13.524
		c0.887,4.508,1.435,7.241,3.961,10.999c1.913,2.801,2.801,6.352,6.217,6.08c0.956-0.07,1.433-0.205,2.322-0.617
		c1.094-0.545,1.776-0.888,2.527-1.91c1.161-1.571,0.819-3.007,1.023-4.92c0.273-2.254,0.479-3.552,0-5.806
		c-0.204-0.957-0.751-1.366-0.751-2.322c0-1.367,0.068-2.665,1.23-3.347C365.771,57.107,366.933,57.653,368.367,58.199
		L368.367,58.199z"/>
	<path fill="#FFFFFF" d="M396.031,63.937c-3.551,0.751-10.382,2.733-12.704,5.054c-0.343,0.342,0.684,1.572,1.503,1.368
		l11.408-2.804c0.954-0.271,1.638-1.091,1.434-2.116C397.603,64.552,396.579,63.937,396.031,63.937L396.031,63.937z M392.48,40.235
		c-0.411-0.751-1.367-1.367-2.392-1.23c-1.297,0.069-1.366,1.571-2.117,2.597c-2.185,3.209-3.348,5.532-3.348,9.425
		c0,5.875-2.049,11.75,1.913,10.519l9.016-2.801c1.3-0.409,0.751-2.117,0.751-3.346c-0.409-3.074-0.613-5.26-1.434-8.471
		C394.119,44.196,394.05,43.24,392.48,40.235L392.48,40.235z M396.988,22.474c1.093,0.205,1.845,0.137,2.801,0.752
		c1.298,0.82,1.364,1.912,2.118,3.278c1.434,2.665,1.434,4.509,2.184,7.446c1.435,5.464,1.981,8.675,2.938,14.275
		c1.229,6.968,1.774,10.93,2.322,17.966c0.341,4.304,0.545,6.76,0.41,11.134c-0.204,7.445,1.57,18.988-2.732,18.922l-13.661-0.343
		c-0.754,0-1.436-0.75-1.436-1.367c-0.409-2.526-0.545-3.824,0-6.215c0.682-2.801,2.324-3.894,3.553-6.488
		c0.956-1.981,2.322-2.939,2.187-5.262c-0.138-0.955-0.138-2.527-1.161-2.527c-3.143,0.412-7.377,0.274-10.999,2.801
		c-1.57,1.16-2.594,1.845-3.552,3.554c-1.503,2.661-0.203,4.851-0.614,7.854c-0.41,2.938,1.435,6.56-1.365,7.582
		c-1.093,0.412-1.981-0.409-3.075,0c-3.484,1.505-2.186-5.531-2.186-8.946c0-7.789,0.341-12.432,1.024-20.357
		c0.751-7.992,0.82-12.636,2.527-20.492c1.298-5.942,2.186-9.426,4.304-14.891c1.436-3.552,1.708-8.265,5.738-8.744
		C391.457,22.133,393.709,21.792,396.988,22.474L396.988,22.474z"/>
	<path fill="#FFFFFF" d="M420.211,22.133c6.013-1.503,9.77-1.775,16.054-1.775c4.029,0,6.422-0.41,10.246,0.751
		c1.433,0.41,2.526,0.273,3.552,1.366c1.366,1.366,1.024,2.87,1.161,4.851c0.205,2.8-0.479,4.372-1.365,7.035
		c-1.025,2.869-1.367,4.781-3.554,6.898c-1.502,1.435-2.525,2.391-4.645,2.596c-1.503,0.138-2.731,0.41-3.756-0.615
		c-1.504-1.502-0.138-3.415,0.614-5.327c0.41-0.956,1.161-1.366,1.229-2.391c0.136-1.435-0.684-2.186-1.436-3.347
		c-1.57-2.391-3.277-3.279-6.009-4.167c-1.845-0.615-3.075-1.024-5.056-0.615c-1.366,0.273-2.321,0.479-3.143,1.572
		c-0.82,1.092-0.752,2.117-0.752,3.483c0,1.776,0.548,2.8,1.366,4.44c1.299,2.527,3.074,3.142,5.123,5.123
		c3.28,3.211,5.26,4.85,8.403,8.197c2.321,2.459,3.824,3.689,5.736,6.488c1.981,2.869,3.007,4.714,3.961,8.062
		c0.411,1.297,0.548,2.116,0.753,3.482c0.82,4.987,0.273,7.994-0.546,13.049c-0.683,4.233-0.752,6.761-2.597,10.584
		c-0.956,1.914-1.16,3.416-2.937,4.647c-1.776,1.229-3.553,1.024-5.328,1.024c-4.712,0-6.899,0.75-11.202-0.139
		c-1.844-0.341-3.006-0.407-4.714-1.229c-2.801-1.364-4.166-2.87-5.738-5.531c-1.912-3.21-1.843-5.671-2.116-9.429
		c-0.274-4.166,0.136-6.625,1.162-10.722c0.954-3.759,1.434-5.875,3.551-9.223c0.957-1.572,1.365-1.366,2.527-1.572
		c2.049-0.41,3.21,0.888,4.851,2.186c1.298,1.093,1.844,1.981,2.799,3.347c1.504,2.118,2.187,3.485,3.074,5.875
		c0.956,2.526,0.956,4.167,1.503,6.831c0.343,1.64,1.024,2.526,0.819,4.166c-0.135,1.094,0.069,2.118-0.819,2.731
		c-0.547,0.413-1.023,0.413-1.706,0.208c-1.095-0.342-0.89-1.572-1.367-2.598c-0.819-1.639-0.684-2.937-1.913-4.303
		c-0.751-0.889-1.229-1.846-2.39-1.911c-1.504-0.07-1.845,1.501-2.597,2.731c-0.547,0.817-0.683,1.365-0.955,2.323
		c-0.479,1.501-0.685,2.391-0.547,3.962c0.137,1.706,0.478,2.661,1.366,4.096c0.819,1.3,1.502,2.734,2.801,2.734
		c2.596,0.34,4.439,0.547,7.034-0.411c1.846-0.682,2.87-1.298,4.305-2.595c3.005-2.87,3.893-5.672,4.098-9.767
		c0.137-2.665-0.205-4.17-1.023-6.698c-1.435-4.507-3.758-6.418-6.832-9.971c-2.664-3.074-4.919-4.03-7.581-7.172
		c-3.962-4.714-5.943-7.924-7.993-13.729c-2.05-5.874-2.731-8.402-2.185-15.847C415.567,23.977,418.504,22.611,420.211,22.133
		L420.211,22.133z"/>
	<path fill="#FFFFFF" d="M470.76,40.644c-0.343-0.751-1.3-1.366-2.323-1.23c-1.299,0.069-1.366,1.503-2.117,2.528
		c-2.256,3.21-3.484,5.533-3.484,9.426c0,6.011-1.981,11.885,1.981,10.587l8.947-2.801c1.229-0.41,0.818-2.186,0.753-3.278
		c-0.344-3.142-0.616-5.328-1.436-8.607C472.399,44.606,472.33,43.582,470.76,40.644L470.76,40.644z M474.31,64.484
		c-3.55,0.614-10.246,2.595-12.705,4.919c-0.135,0.339,0.685,1.639,1.503,1.503l11.409-2.871c0.955-0.274,1.57-1.229,1.365-2.185
		C475.746,65.03,474.791,64.484,474.31,64.484L474.31,64.484z M475.267,22.885c1.093,0.206,1.844,0.136,2.801,0.751
		c1.299,0.82,1.365,1.913,2.118,3.278c1.434,2.665,1.434,4.509,2.185,7.446c1.436,5.533,1.845,8.743,2.801,14.413
		c1.229,6.899,1.98,10.861,2.527,17.829c0.342,4.37,0.479,6.83,0.342,11.201c-0.204,7.378,1.57,18.853-2.8,18.786l-13.662-0.205
		c-0.751,0-1.229-0.957-1.366-1.504c-0.342-2.389-0.546-3.824,0-6.215c0.615-2.869,2.323-3.961,3.552-6.625
		c0.957-1.981,2.393-2.869,2.118-5.125c0-0.955-0.137-2.527-0.958-2.527c-3.346,0.412-7.512,0.205-11.2,2.802
		c-1.642,1.16-2.596,1.843-3.554,3.553c-1.503,2.661-0.068,4.851-0.409,7.853c-0.342,3.007,1.436,6.694-1.434,7.653
		c-1.094,0.407-2.118-0.547-3.072,0c-3.352,1.364-2.188-5.672-2.188-9.018c0-7.788,0.411-12.431,1.162-20.356
		c0.75-7.992,0.75-12.636,2.392-20.492c1.228-5.942,2.116-9.426,4.303-14.891c1.366-3.552,1.708-8.265,5.736-8.743
		C469.734,22.611,471.989,22.202,475.267,22.885L475.267,22.885z"/>
	<polygon fill="#FFFFFF" points="158.187,131.152 154.225,131.152 154.225,116.398 161.26,116.398 161.26,119.812 158.187,119.812 
		158.187,121.999 161.056,121.999 161.056,125.344 158.187,125.344 	"/>
	<path fill="#FFFFFF" d="M181.48,131.152h-4.304l-1.98-5.262c0-0.067-0.069-0.205-0.136-0.34c-0.069-0.137-0.069-0.342-0.206-0.546
		v0.955v5.122h-3.962v-14.753h4.099c1.777,0,3.143,0.341,4.031,1.024c1.162,0.888,1.708,2.186,1.708,3.824
		c0,1.776-0.752,3.006-2.254,3.691L181.48,131.152L181.48,131.152z M174.99,123.229h0.274c0.478,0,0.819-0.206,1.161-0.547
		c0.273-0.342,0.478-0.821,0.478-1.367c0-1.093-0.546-1.64-1.708-1.64h-0.136v3.554H174.99z"/>
	<path fill="#FFFFFF" d="M201.631,131.152h-4.099l-0.273-1.847h-2.664l-0.341,1.847h-4.099l3.553-14.754h4.85L201.631,131.152
		L201.631,131.152z M196.712,126.098l-0.273-1.71c0,0,0-0.066-0.067-0.272c0-0.137-0.068-0.683-0.206-1.641
		c0-0.135,0-0.272-0.069-0.41c0-0.204-0.066-0.407-0.066-0.683l-0.137-1.364c0,0.136,0,0.271-0.069,0.476
		c0,0.137-0.067,0.342-0.067,0.55c-0.069,0.408-0.069,0.68-0.069,0.817s0,0.276-0.069,0.276l-0.272,1.771l-0.41,2.322h1.775V126.098
		z"/>
	<path fill="#FFFFFF" d="M210.989,131.152v-14.754h3.824l1.981,5.191c0.138,0.271,0.206,0.681,0.342,1.022
		c0.137,0.411,0.273,0.821,0.479,1.367l0.409,1.297c-0.136-1.297-0.273-2.391-0.342-3.277c-0.067-0.888-0.136-1.709-0.136-2.323
		v-3.277h3.825v14.754h-3.825l-1.98-5.396c-0.205-0.547-0.411-1.093-0.546-1.64c-0.137-0.479-0.341-1.024-0.41-1.434
		c0.068,1.022,0.137,1.911,0.204,2.731c0.069,0.751,0.069,1.436,0.069,2.049v3.758h-3.893V131.152z"/>
	<path fill="#FFFFFF" d="M240.019,126.573l-0.206,4.237c-0.889,0.342-1.708,0.545-2.39,0.545c-1.639,0-3.006-0.614-4.168-1.842
		c-1.229-1.368-1.913-3.282-1.913-5.738c0-2.323,0.616-4.167,1.777-5.602c1.162-1.367,2.731-2.117,4.713-2.117
		c0.615,0,1.298,0.137,1.98,0.342v4.232c-0.615-0.612-1.229-0.887-1.844-0.887c-0.819,0-1.435,0.341-1.912,1.025
		c-0.479,0.683-0.684,1.64-0.684,2.936c0,0.617,0.068,1.164,0.204,1.571c0.138,0.479,0.273,0.889,0.479,1.164
		c0.205,0.339,0.477,0.545,0.82,0.751c0.339,0.203,0.682,0.271,1.092,0.271C238.652,127.533,239.335,127.191,240.019,126.573
		L240.019,126.573z"/>
	<polygon fill="#FFFFFF" points="259.964,131.152 256.002,131.152 256.002,125.209 254.09,125.209 254.09,131.152 250.129,131.152 
		250.129,116.398 254.09,116.398 254.09,121.59 256.002,121.59 256.002,116.398 259.964,116.398 	"/>
	<polygon fill="#FFFFFF" points="274.24,131.152 270.21,131.152 270.21,116.398 274.24,116.398 	"/>
	<path fill="#FFFFFF" d="M284.145,130.741v-4.643c0.751,1.093,1.639,1.638,2.526,1.638c0.343,0,0.615-0.07,0.819-0.273
		c0.204-0.206,0.343-0.41,0.343-0.684c0-0.409-0.204-0.751-0.684-1.16l-0.683-0.479c-0.41-0.343-0.819-0.615-1.094-0.957
		c-0.272-0.342-0.545-0.682-0.751-1.024c-0.204-0.344-0.341-0.684-0.408-1.094c-0.069-0.342-0.139-0.75-0.139-1.16
		c0-0.683,0.139-1.433,0.479-2.184c0.136-0.342,0.341-0.684,0.546-0.96c0.205-0.271,0.478-0.546,0.751-0.75
		c0.752-0.613,1.639-0.955,2.732-0.955c0.957,0,1.913,0.272,2.868,0.75v4.509c-0.342-0.479-0.683-0.889-1.092-1.161
		c-0.409-0.274-0.819-0.41-1.23-0.41c-0.273,0-0.546,0.068-0.75,0.274c-0.205,0.204-0.274,0.408-0.274,0.612
		c0,0.413,0.274,0.821,0.82,1.163l0.615,0.477c0.819,0.615,1.434,1.231,1.776,1.846c0.341,0.614,0.546,1.365,0.546,2.254
		c0,1.435-0.411,2.664-1.299,3.619c-0.888,0.96-1.98,1.435-3.347,1.435C286.263,131.355,285.238,131.152,284.145,130.741
		L284.145,130.741z"/>
	<polygon fill="#FFFFFF" points="305.592,131.152 301.631,131.152 301.631,116.398 305.592,116.398 	"/>
	<path fill="#FFFFFF" d="M315.907,131.152v-14.754h3.825l1.982,5.191c0.136,0.271,0.204,0.681,0.341,1.022
		c0.136,0.411,0.273,0.821,0.478,1.367l0.409,1.297c-0.135-1.297-0.272-2.391-0.341-3.277c-0.068-0.888-0.137-1.709-0.137-2.323
		v-3.277h3.825v14.754h-3.825l-1.98-5.396c-0.204-0.547-0.411-1.093-0.546-1.64c-0.138-0.479-0.343-1.024-0.41-1.434
		c0.067,1.022,0.137,1.911,0.204,2.731c0.068,0.751,0.068,1.436,0.068,2.049v3.758h-3.894V131.152z"/>
	<path fill="#FFFFFF" d="M341.796,122.612h5.533v0.617c0,2.869-0.409,4.849-1.297,6.146c-0.89,1.365-2.255,2.048-4.1,2.048
		c-1.776,0-3.143-0.683-4.167-1.981c-1.024-1.364-1.503-3.211-1.503-5.533c0-2.39,0.479-4.233,1.503-5.668
		c1.024-1.367,2.391-2.048,4.167-2.048c2.323,0,4.03,1.227,5.054,3.619l-3.823,1.436c-0.069-0.479-0.205-0.821-0.411-1.094
		c-0.204-0.274-0.478-0.41-0.75-0.41c-1.093,0-1.641,1.504-1.641,4.507c0,1.3,0.138,2.189,0.342,2.802
		c0.275,0.613,0.613,0.889,1.161,0.889c0.205,0,0.41-0.069,0.546-0.137c0.206-0.068,0.342-0.271,0.41-0.41
		c0.138-0.203,0.204-0.409,0.273-0.683c0.069-0.274,0.137-0.547,0.137-0.889h-1.435V122.612L341.796,122.612z"/>
	<path fill="#FFFFFF" d="M371.372,131.152v-14.754h3.827l1.979,5.191c0.137,0.271,0.206,0.681,0.342,1.022
		c0.137,0.411,0.273,0.821,0.479,1.367l0.411,1.297c-0.139-1.297-0.275-2.391-0.342-3.277c-0.069-0.888-0.139-1.709-0.139-2.323
		v-3.277h3.827v14.754h-3.827l-1.979-5.396c-0.206-0.547-0.41-1.093-0.548-1.64c-0.135-0.479-0.342-1.024-0.409-1.434
		c0.067,1.022,0.137,1.911,0.206,2.731c0.068,0.751,0.068,1.436,0.068,2.049v3.758h-3.896V131.152z"/>
	<polygon fill="#FFFFFF" points="392.002,131.152 392.002,116.398 399.379,116.398 399.379,119.812 395.963,119.812 
		395.963,121.999 399.037,121.999 399.037,125.344 395.963,125.344 395.963,127.599 399.379,127.599 399.379,131.152 	"/>
	<polygon fill="#FFFFFF" points="414.474,131.152 410.445,131.152 410.445,119.88 408.259,119.88 408.259,116.398 416.728,116.398 
		416.728,119.88 414.474,119.88 	"/>
	<path fill="#FFFFFF" d="M439.27,131.152h-3.827l-0.886-5.192c-0.206-1.025-0.341-1.844-0.41-2.597
		c-0.069-0.34-0.069-0.681-0.138-0.888c0-0.272-0.067-0.41-0.067-0.546c0,0.273-0.068,0.753-0.138,1.434
		c0,0.342-0.068,0.753-0.135,1.162c-0.069,0.409-0.069,0.818-0.139,1.298l-0.751,5.329h-3.892l-3.279-14.754h3.961l0.614,4.028
		c0.274,1.639,0.41,2.868,0.547,3.824l0.138,1.368l0.135-1.16c0.138-1.367,0.275-2.665,0.548-3.828l0.752-4.232h3.414l0.683,3.549
		c0.342,1.643,0.616,3.623,0.819,5.876c0.069-1.025,0.139-1.914,0.205-2.664c0.068-0.75,0.206-1.501,0.274-2.115l0.751-4.579h3.893
		L439.27,131.152L439.27,131.152z"/>
	<path fill="#FFFFFF" d="M462.29,123.775c0,2.253-0.479,4.097-1.503,5.464c-1.025,1.434-2.323,2.116-3.963,2.116
		c-1.435,0-2.664-0.545-3.757-1.638c-1.297-1.367-1.98-3.416-1.98-6.147c0-2.598,0.684-4.577,2.049-6.012
		c1.024-1.026,2.186-1.502,3.619-1.502c1.709,0,3.075,0.684,4.032,2.047C461.81,119.608,462.29,121.452,462.29,123.775
		L462.29,123.775z M458.191,123.842c0-2.664-0.479-4.029-1.437-4.029c-0.476,0-0.817,0.342-1.093,1.023
		c-0.272,0.684-0.406,1.573-0.406,2.869c0,1.229,0.134,2.186,0.406,2.868c0.275,0.684,0.617,1.026,1.093,1.026
		c0.479,0,0.82-0.343,1.094-1.026C458.053,125.96,458.191,125.005,458.191,123.842L458.191,123.842z"/>
	<path fill="#FFFFFF" d="M482.713,131.152h-4.303l-1.98-5.262c0-0.067-0.069-0.205-0.139-0.34c-0.067-0.137-0.067-0.342-0.134-0.546
		v0.955v5.122h-3.964v-14.753h4.098c1.777,0,3.143,0.341,4.031,1.024c1.161,0.888,1.708,2.186,1.708,3.824
		c0,1.776-0.752,3.006-2.254,3.691L482.713,131.152L482.713,131.152z M476.223,123.229h0.274c0.478,0,0.819-0.206,1.161-0.547
		c0.272-0.342,0.478-0.821,0.478-1.367c0-1.093-0.547-1.64-1.707-1.64h-0.139v3.554H476.223z"/>
	<polygon fill="#FFFFFF" points="503,131.152 498.697,131.152 496.101,124.322 496.169,131.152 492.207,131.152 492.207,116.398 
		496.169,116.398 496.101,122.682 498.423,116.398 502.658,116.398 499.449,123.502 	"/>
	<path fill="none" stroke="#FFFFFF" stroke-width="1.903" stroke-miterlimit="3.8637" d="M9.21,11.751h109.974
		c3.482,0,6.284,2.8,6.284,6.284v102.05c0,3.485-2.802,6.285-6.284,6.285H9.21c-3.484,0-6.285-2.8-6.285-6.285V18.034
		C2.926,14.551,5.726,11.751,9.21,11.751L9.21,11.751z"/>
	<path fill="#FFFFFF" d="M43.432,87.161c0-11.748,9.562-21.243,21.448-21.243c11.818,0,21.449,9.495,21.449,21.243
		c0,11.752-9.563,21.242-21.449,21.242C53.063,108.474,43.432,98.913,43.432,87.161L43.432,87.161z"/>
	<polygon fill="#FFFFFF" points="21.984,68.103 34.073,81.423 65.084,54.101 94.32,81.493 107.366,68.309 64.811,27.665 	"/>
</g>
</svg>
